# xmcd CD database file generated by Grip 3.2.0
#
# Track frame offsets:
#       150
#       10448
#       20387
#       29942
#       53539
#       64034
#       78449
#       87128
#       101004
#       119463
#       138948
#       151113
#       172713
#       187396
#       210356
#       236362
#
# Disc length: 4527 seconds
#
# Revision: 1
# Processed by: cddbd v1.5.1PL0 Copyright (c) Steve Scherf et al.
# Submitted via: Grip 3.2.0
#
DISCID=c811ad10
DTITLE=The Foggy Hogtown Boys - Live at the Dominion
DYEAR=2004
DGENRE=Bluegrass
TTITLE0=Feast Here Tonight
TTITLE1=Till the End of the World Rolls 'Round
TTITLE2=Cumberland Gap
TTITLE3=Out Among the Stars
TTITLE4=Dark Hollow
TTITLE5=Willow Garden
TTITLE6=Band Intro
TTITLE7=Bluegrass Breakdown
TTITLE8=Doin' My Time
TTITLE9=Blue Darling
TTITLE10=Roving Gambler
TTITLE11=Travelling Down This Lonesome Road
TTITLE12=Take Me in Your Lifeboat
TTITLE13=Blue Moon of Kentucky
TTITLE14=Lee Highway Blues
TTITLE15=Data Track (Blue Moon of Kentucky MPEG2 video)
EXTD=http://www.foggyhogtownboys.com/
EXTT0=
EXTT1=
EXTT2=
EXTT3=
EXTT4=
EXTT5=
EXTT6=
EXTT7=
EXTT8=
EXTT9=
EXTT10=
EXTT11=
EXTT12=
EXTT13=
EXTT14=
EXTT15=
PLAYORDER=
